# xmcd
#
# Track frame offsets:
#	150
#	14676
#	30690
#	48161
#	63085
#	78925
#	97325
#	111557
#	126777
#	143748
#	158825
#	174262
#	193716
#	210802
#	223088
#	234158
#
# Disc length: 3336 seconds
#
# Revision: 0
# Processed by: cddbd v1.5.2PL0 Copyright (c) Steve Scherf et al.
# Submitted via: audiograbber 1.83.01
#
DISCID=d60d0610
DTITLE=Mixed - 90's Country-Vol. 2
DYEAR=1900
DGENRE=Country
TTITLE0=Michael Peterson - Drink, Swear, Steal and Lie
TTITLE1=Daryle Singletary - The Note
TTITLE2=LeAnn Rimes - On The Side Of Angels
TTITLE3=Bryan White - Sittin' On Go
TTITLE4=Neal McCoy - They're Playing Our Song
TTITLE5=Kenny Chesney - She's Got It All
TTITLE6=Dixie Chicks - There's Your Trouble
TTITLE7=Diamond Rio - Holdin'
TTITLE8=Michael Peterson - From Here To Eternity
TTITLE9=Wynonna - When Love Starts Talking
TTITLE10=Deryl Dodd - That's How I Got To Memphis
TTITLE11=John Michael Montgomery - I Miss You A Little
TTITLE12=Trisha Yearwood - Everybody Knows
TTITLE13=Kevin Sharp - If You Love Somebody
TTITLE14=Garth Brooks - Long Neck Bottle
TTITLE15=Lorrie Morgan - Good As I Was To You
EXTD=
EXTT0=
EXTT1=
EXTT2=
EXTT3=
EXTT4=
EXTT5=
EXTT6=
EXTT7=
EXTT8=
EXTT9=
EXTT10=
EXTT11=
EXTT12=
EXTT13=
EXTT14=
EXTT15=
PLAYORDER=
